<svg width="19" height="19" viewBox="0 0 19 19" fill="none" xmlns="http://www.w3.org/2000/svg">
<g id="Group">
<path id="Vector" d="M5.02883 5.06433C6.06789 4.0165 7.50686 3.3663 9.0888 3.36784C10.5473 3.36926 11.878 3.91684 12.8872 4.81731C13.0318 4.94632 13.2639 4.93784 13.4009 4.80081L15.2526 2.9492C15.4033 2.79842 15.3992 2.55204 15.2425 2.40742C13.5921 0.884077 11.376 -0.0351591 8.94471 0.00103049C6.48667 0.0376119 4.26322 1.05865 2.64802 2.68351C2.46792 2.86467 2.67858 5.05788 2.67858 5.05788C2.67858 5.05788 4.01499 6.08675 5.02883 5.06433Z" fill="url(#paint0_linear_0_964)"/>
<path id="Vector_2" d="M5.02857 5.06433C6.06763 4.0165 7.5066 3.3663 9.08853 3.36783C10.547 3.36926 11.8777 3.91684 12.8869 4.8173C13.0316 4.94632 13.2637 4.93784 13.4007 4.80081L14.4633 3.73824C14.3707 3.66672 14.2795 3.59163 14.1904 3.51277C12.8051 2.28592 11.0028 1.50525 9.00205 1.52626C6.92706 1.54806 5.06334 2.39438 3.71574 3.75142C3.56838 3.89981 3.5105 5.06023 3.5105 5.06023C3.5105 5.06023 3.6834 5.04459 5.02857 5.06433Z" fill="url(#paint1_linear_0_964)"/>
<path id="Vector_3" d="M3.3682 9.03134C3.35396 10.6392 4.00366 12.0953 5.05942 13.1422L4.24908 14.891L2.67825 15.5234C1.02692 13.881 0.00357133 11.6081 9.36584e-06 9.09617C-0.0035526 6.60172 1.00911 4.33168 2.64797 2.68356L5.02879 5.06438C4.01506 6.08666 3.38174 7.48759 3.3682 9.03134Z" fill="url(#paint2_linear_0_964)"/>
<path id="Vector_4" d="M3.36829 9.03134C3.35404 10.6392 4.00374 12.0953 5.05951 13.1422L3.75761 14.4445C2.4062 13.1023 1.55952 11.2526 1.52711 9.20517C1.49327 7.07547 2.33283 5.14453 3.71629 3.7518L5.02888 5.06438C4.01514 6.08667 3.38182 7.48759 3.36829 9.03134Z" fill="url(#paint3_linear_0_964)"/>
<path id="Vector_5" d="M13.1113 13.1469C12.0698 14.1788 10.6321 14.8081 9.04605 14.7981C7.49147 14.7883 6.08449 14.1575 5.05985 13.1418L2.67847 15.5232C4.31451 17.1503 6.56674 18.1584 9.05453 18.166C11.5474 18.1737 13.8146 17.1486 15.4639 15.4996L14.7833 14.0443L13.1113 13.1469Z" fill="url(#paint4_linear_0_964)"/>
<path id="Vector_6" d="M13.1112 13.1468C12.0697 14.1787 10.632 14.8082 9.04605 14.7982C7.49151 14.7884 6.08453 14.1576 5.05989 13.1418L3.75757 14.4442C5.12369 15.8013 7.0054 16.6401 9.08306 16.6401C11.1608 16.6401 13.0424 15.8013 14.4086 14.4442L13.1112 13.1468Z" fill="url(#paint5_linear_0_964)"/>
<path id="Vector_7" d="M18.166 8.1502C18.166 7.97114 18.0209 7.82596 17.8418 7.82596H9.38712C9.22673 7.82596 9.09668 7.95601 9.09668 8.1164V10.9119C9.09668 11.0723 9.22673 11.2023 9.38712 11.2023H13.5162C13.9415 11.2023 14.2056 11.6664 13.9868 12.0311C13.7427 12.4382 13.449 12.8112 13.1146 13.143C13.1134 13.1443 13.1125 13.1456 13.1113 13.1469L15.4643 15.4999C15.5754 15.3888 15.6881 15.2776 15.8018 15.1662C17.272 13.5357 18.166 11.3725 18.166 9.0127V8.1502Z" fill="url(#paint6_linear_0_964)"/>
<path id="Vector_8" d="M16.2582 11.4617C16.5906 10.4572 15.8461 9.42139 14.7882 9.42139H9.09668V10.9119C9.09668 11.0723 9.22673 11.2023 9.38712 11.2023H13.5162C13.9415 11.2023 14.2056 11.6664 13.9868 12.0311C13.7434 12.4369 13.4508 12.8087 13.1179 13.1398C13.1155 13.1421 13.1137 13.1444 13.1113 13.1468L14.4085 14.4441C15.0981 13.7599 15.6559 12.9431 16.0417 12.0355C16.1211 11.8478 16.1934 11.6565 16.2582 11.4617Z" fill="url(#paint7_linear_0_964)"/>
</g>
<defs>
<linearGradient id="paint0_linear_0_964" x1="2.57521" y1="2.75853" x2="15.3628" y2="2.75853" gradientUnits="userSpaceOnUse">
<stop stop-color="#FF637B"/>
<stop offset="1" stop-color="#F90217"/>
</linearGradient>
<linearGradient id="paint1_linear_0_964" x1="12.2591" y1="7.67158" x2="4.22499" y2="-0.362612" gradientUnits="userSpaceOnUse">
<stop stop-color="#FF637B"/>
<stop offset="1" stop-color="#F90217"/>
</linearGradient>
<linearGradient id="paint2_linear_0_964" x1="0.216007" y1="6.6564" x2="5.15531" y2="11.5957" gradientUnits="userSpaceOnUse">
<stop stop-color="#FFD833"/>
<stop offset="1" stop-color="#F2B631"/>
</linearGradient>
<linearGradient id="paint3_linear_0_964" x1="6.27777" y1="11.639" x2="1.00019" y2="6.3614" gradientUnits="userSpaceOnUse">
<stop stop-color="#FFD833"/>
<stop offset="1" stop-color="#F2B631"/>
</linearGradient>
<linearGradient id="paint4_linear_0_964" x1="8.30064" y1="14.3535" x2="11.0566" y2="17.1094" gradientUnits="userSpaceOnUse">
<stop stop-color="#28A265"/>
<stop offset="1" stop-color="#28895E"/>
</linearGradient>
<linearGradient id="paint5_linear_0_964" x1="12.6037" y1="17.9649" x2="4.63192" y2="9.99303" gradientUnits="userSpaceOnUse">
<stop stop-color="#28A265"/>
<stop offset="1" stop-color="#28895E"/>
</linearGradient>
<linearGradient id="paint6_linear_0_964" x1="12.965" y1="8.85765" x2="17.1922" y2="13.0848" gradientUnits="userSpaceOnUse">
<stop stop-color="#7FAEF4"/>
<stop offset="1" stop-color="#4C8DF1"/>
</linearGradient>
<linearGradient id="paint7_linear_0_964" x1="16.5051" y1="14.4686" x2="11.0174" y2="8.98084" gradientUnits="userSpaceOnUse">
<stop stop-color="#7FAEF4"/>
<stop offset="1" stop-color="#4C8DF1"/>
</linearGradient>
</defs>
</svg>
